<svg xmlns="http://www.w3.org/2000/svg" viewBox="0 0 256 256">
<path fill="#181717" d="M128 8C61.7 8 8 61.7 8 128c0 52.9 34.4 97.7 82.1 113.6 6 1.1 8.2-2.6 8.2-5.8v-20.3c-33.4 7.3-40.4-16.1-40.4-16.1-5.4-13.7-13.2-17.4-13.2-17.4-10.8-7.4.8-7.3.8-7.3 11.9.8 18.2 12.2 18.2 12.2 10.6 18.1 27.8 12.9 34.6 9.9 1.1-7.7 4.2-12.9 7.6-15.9-26.7-3-54.7-13.3-54.7-59.1 0-13 4.7-23.7 12.3-32.1-1.2-3-5.3-15.1 1.2-31.5 0 0 10-3.2 32.8 12.3 9.5-2.6 19.7-3.9 29.8-3.9s20.3 1.3 29.8 3.9c22.8-15.5 32.8-12.3 32.8-12.3 6.5 16.4 2.4 28.5 1.2 31.5 7.6 8.4 12.3 19.1 12.3 32.1 0 45.9-28 56-54.8 59 4.3 3.7 8.2 11 8.2 22.2v33c0 3.2 2.2 7 8.2 5.8C213.6 225.7 248 180.9 248 128 248 61.7 194.3 8 128 8z"/>
</svg>